<?xml version="1.0" standalone="no"?>
<!DOCTYPE svg PUBLIC "-//W3C//DTD SVG 20010904//EN"
 "http://www.w3.org/TR/2001/REC-SVG-20010904/DTD/svg10.dtd">
<svg version="1.0" xmlns="http://www.w3.org/2000/svg"
 width="1080.000000pt" height="1080.000000pt" viewBox="0 0 1080.000000 1080.000000"
 preserveAspectRatio="xMidYMid meet">
<metadata>
Created by potrace 1.14, written by Peter Selinger 2001-2017
</metadata>
<g transform="translate(0.000000,1080.000000) scale(0.100000,-0.100000)"
fill="#000000" stroke="none">
<path d="M7065 9414 c-444 -66 -811 -299 -1048 -664 -67 -104 -89 -148 -133
-262 -146 -378 -126 -815 53 -1173 57 -113 101 -181 170 -268 30 -38 399 -403
819 -811 666 -648 773 -748 832 -779 142 -74 276 -76 418 -6 53 26 157 127
846 817 684 686 793 799 847 881 110 166 180 334 223 535 31 146 31 427 0 573
-96 446 -371 806 -765 1005 -104 52 -288 113 -407 135 -135 24 -392 24 -525
-1 -123 -23 -280 -73 -370 -119 l-68 -34 -91 42 c-100 47 -211 84 -326 110
-73 16 -403 29 -475 19z m290 -869 c100 -21 200 -72 280 -144 129 -114 210
-146 359 -139 114 5 190 38 297 128 129 109 244 153 394 153 216 0 403 -113
491 -296 44 -93 57 -161 52 -276 -5 -106 -27 -181 -79 -267 -21 -33 -242 -263
-616 -636 l-583 -583 -551 550 c-302 303 -572 579 -599 615 -98 129 -138 294
-107 445 55 270 278 457 552 464 22 0 71 -6 110 -14z"/>
<path d="M1825 8534 c-519 -80 -946 -452 -1094 -951 -53 -180 -51 -55 -51
-2633 0 -2151 2 -2396 16 -2481 58 -337 254 -653 534 -859 103 -75 295 -171
412 -204 207 -59 -1 -56 3533 -56 3536 0 3327 -3 3533 56 104 30 268 106 360
168 312 207 526 537 586 901 15 89 17 213 14 1120 l-3 1020 -36 75 c-114 237
-392 328 -621 203 -86 -47 -168 -141 -206 -237 -15 -37 -17 -140 -22 -1041
l-5 -1000 -23 -60 c-48 -127 -144 -226 -270 -277 l-57 -23 -3245 0 c-3105 0
-3247 1 -3297 18 -133 47 -241 154 -285 285 l-23 67 -3 2193 c-1 1205 1 2192
5 2192 5 0 622 -616 1373 -1369 1237 -1241 1374 -1375 1459 -1431 253 -165
480 -233 771 -233 223 1 399 43 595 141 158 79 229 136 506 403 248 240 267
262 298 329 77 166 41 369 -88 498 -99 99 -200 137 -345 130 -158 -7 -179 -21
-461 -298 -265 -260 -302 -287 -436 -311 -90 -16 -184 -2 -275 41 -57 28 -180
148 -1412 1383 l-1351 1352 1082 5 1082 5 57 23 c65 26 141 80 185 132 78 93
107 181 101 314 -3 80 -8 101 -39 166 -41 85 -112 162 -187 203 -109 59 -55
57 -1372 56 -975 -1 -1222 -4 -1295 -15z"/>
</g>
</svg>
